<svg width="30" height="30" viewBox="0 0 30 30" fill="none" xmlns="http://www.w3.org/2000/svg">
<path d="M15 30C10.9934 30 7.22649 28.4397 4.39339 25.6066C1.56029 22.7735 0 19.0066 0 15C0 10.9934 1.56029 7.22649 4.39339 4.39339C7.22649 1.56029 10.9934 0 15 0C19.0066 0 22.7735 1.56029 25.6066 4.39339C28.4397 7.22649 30 10.9934 30 15C30 19.0066 28.4397 22.7735 25.6066 25.6066C22.7735 28.4397 19.0066 30 15 30ZM15 2.34375C8.02139 2.34375 2.34375 8.02139 2.34375 15C2.34375 21.9786 8.02139 27.6562 15 27.6562C21.9786 27.6562 27.6562 21.9786 27.6562 15C27.6562 8.02139 21.9786 2.34375 15 2.34375ZM21.1734 21.1734L19.5161 19.5161C17.0258 22.0063 12.9742 22.0063 10.4839 19.5161C7.9937 17.0258 7.9937 12.9742 10.4839 10.4839C12.9742 7.9937 17.0258 7.9937 19.5161 10.4839L21.1734 8.8266C17.7692 5.42267 12.2305 5.42267 8.8266 8.8266C5.42267 12.2308 5.42267 17.7695 8.8266 21.1734C10.5286 22.8754 12.7643 23.7263 15 23.7263C17.2355 23.7263 19.4714 22.8754 21.1734 21.1734Z" fill="#333333"/>
</svg>
