<svg width="604" height="75" viewBox="0 0 604 75" fill="none" xmlns="http://www.w3.org/2000/svg">
<path fill-rule="evenodd" clip-rule="evenodd" d="M375.484 46.833C373.907 47.4789 372.594 48.5896 371.55 48.3406C368.075 47.5121 364.687 48.2293 361.285 48.2941C357.113 48.3705 352.882 49.5659 348.855 49.4563C343.321 49.3069 337.747 49.5343 332.332 49.883C326.752 50.2416 321.103 49.6705 315.531 50.655C313.037 51.0933 310.308 50.2034 307.678 49.9876C307.397 49.966 307.086 50.4159 306.708 50.7131C306.861 51.2311 307.026 51.7824 307.234 52.4863C310.581 52.229 313.967 51.2776 317.071 51.9368C319.859 52.5262 322.377 50.7729 324.528 51.5499C327.115 52.4846 329.365 50.4558 331.386 51.53C333.763 52.7968 335.633 50.396 337.727 51.3822C340.235 52.5643 342.466 50.2931 344.67 50.8078C347.765 51.5316 350.822 49.4098 353.266 50.3645C356.578 51.6595 359.455 48.2493 362.423 50.5703C365.395 49.1242 368.606 50.0955 371.688 49.7717C375.171 49.4065 378.717 48.4419 382.117 48.8885C385.02 49.2703 387.754 47.7777 390.154 48.4385C392.38 49.0528 394.183 47.7263 395.891 48.309C398.198 49.0944 400.131 48.2542 402.239 48.1081C403.995 47.9853 405.782 47.9488 407.568 47.9853C410.853 48.055 414.232 48.568 417.42 47.2332C418.159 46.9244 419.348 46.418 419.722 46.7517C422.066 48.8304 424.292 45.9929 426.604 46.9376C429.24 48.0118 431.632 46.2802 434.165 46.0046C434.966 45.9182 435.957 45.2458 436.496 45.5563C438.522 46.7118 440.496 45.186 442.211 45.6459C444.576 46.2768 445.841 44.3061 447.777 44.2131C450.671 44.0687 453.562 43.818 456.45 43.5573C458.915 43.3348 461.371 43.0293 464.131 42.7305C464.198 42.6392 464.52 42.1842 464.705 41.9286C466.265 42.3602 467.659 42.7471 468.71 43.0426C470.888 41.1947 473.018 40.6003 475.455 41.4022C478.142 42.2855 479.783 40.2168 481.686 39.0845C483.878 37.7795 486.462 41.037 488.755 37.9638C489.905 36.4247 492.992 36.4662 495.457 35.7207C491.132 34.2946 487.2 34.7329 483.582 36.1939C479.861 37.7031 475.612 35.5663 472.178 38.1663C469.54 36.9411 467.802 38.6694 465.949 40.2334C464.73 39.5261 463.537 38.8321 462.17 38.0368C460.986 38.8736 459.921 39.6274 458.803 40.4177C456.784 39.5427 454.775 39.0646 453.426 41.5566C452.501 40.9457 451.636 40.3729 450.624 39.7004C446.128 40.4808 441.664 42.2855 436.79 41.5616C434.729 41.2561 432.562 41.3757 430.501 41.6762C426.634 42.244 422.853 43.0144 418.882 43.2468C414.646 43.4959 410.16 42.7222 406.013 44.4953C405.341 44.7842 404.238 44.0189 403.285 43.7233C402.866 44.3094 402.578 45.1528 402.172 45.2126C398.939 45.6791 395.685 46.0427 392.428 46.315C391.933 46.3565 391.374 45.7705 390.84 45.4749C390.527 45.9481 390.194 46.4445 389.694 47.2049C388.027 46.7467 386.252 46.2569 384.472 45.7671C384.373 45.9398 384.306 46.2088 384.153 46.2802C381.708 47.4108 378.893 46.0162 376.428 47.3178C376.127 47.4772 375.4 46.7882 375.484 46.833ZM110.413 52.7835C110.022 51.9899 109.759 51.4603 109.352 50.6351C108.96 51.1116 108.655 51.4885 108.313 51.9102C104.977 50.8609 101.606 49.7037 98.1879 48.754C93.6019 47.4805 88.9947 46.5458 84.4658 44.7527C80.623 43.2319 76.1194 42.8816 72.6569 40.5455C69.3829 38.3423 65.2242 39.6241 62.4198 36.6355C58.2698 36.9842 55.384 33.4677 51.618 32.5546C50.5104 32.2873 49.6358 31.5385 48.275 31.7643C46.9024 31.9867 46.8425 31.6431 44.6474 29.0016C44.2184 29.0348 43.653 29.0613 43.0936 29.1327C42.6959 29.1825 42.0567 29.4947 41.9454 29.3486C39.2551 25.7872 34.4875 27.9166 31.5839 25.0145C31.3093 24.7418 31.0389 24.157 30.8121 24.1749C24.3784 24.7296 19.3351 19.8891 13.3129 18.9618C11.0579 18.6125 9.70615 16.5428 7.56046 16.1016C6.64175 15.9105 5.74919 15.5438 4.73209 15.2218C4.27366 14.304 3.89823 13.1086 3.17124 12.2253C2.44103 11.3381 1.36043 10.7578 0 9.71218C2.84191 7.51529 6.08168 8.00474 8.43569 5.88272C6.2302 6.2714 4.02469 6.66007 1.66072 7.07514C1.41515 6.59947 1.14461 6.0745 0.875624 5.55649C7.81925 1.32641 7.86279 1.03651 17.5455 2.81468C24.3954 4.0755 31.5161 4.29815 37.9325 7.77596C43.3356 7.82178 48.2011 10.4 53.324 11.7422C60.3086 13.5732 67.1234 16.1418 74.0735 18.1317C82.8209 20.6392 91.62 22.9413 100.423 25.2188C108.662 27.3511 116.996 28.8488 125.378 30.2434C130.907 31.1632 136.467 32.4583 142.027 33.4644C147.59 34.4689 153.181 35.2808 158.767 36.1375C162.863 36.7634 166.996 37.8841 171.064 37.7546C175.367 37.6168 179.146 39.9628 183.36 39.82C186.018 39.7303 188.704 40.9805 191.359 39.8382C191.725 39.6789 192.222 39.4531 192.528 39.5875C197.623 41.8405 203.014 40.8195 208.252 41.4504C213.693 42.1045 219.172 42.3818 224.638 42.679C227.664 42.845 230.673 42.596 233.708 43.2136C237.291 43.9408 240.891 42.9031 244.547 43.3232C249.058 43.8429 253.664 43.8462 258.16 43.7831C262.553 43.72 266.954 43.7565 271.337 43.901C279.883 44.1766 288.423 43.2452 296.981 44.3609C299.245 44.6581 301.384 43.6602 303.882 44.0687C307.247 44.6232 311.08 42.5678 314.235 43.5075C317.718 44.5418 320.78 41.4471 323.961 43.6403C330.034 42.0697 336.391 43.4295 342.511 42.1045C344.329 41.7077 346.31 42.0647 348.213 42.0431C350.317 42.0232 352.421 42.0116 354.518 41.9053C356.426 41.8123 358.298 40.2284 360.234 41.9286C363.238 40.7879 366.458 41.4836 369.485 40.9988C373.363 40.3795 377.433 41.5965 381.144 39.7884C383.884 41.8223 386.839 38.4602 389.664 40.3413C390.158 40.6701 391.192 40.0906 391.981 39.9395C394.263 39.5029 396.402 38.8471 398.912 39.5394C401.061 40.1338 403.175 38.0568 405.857 39.2123C407.402 39.8748 409.709 38.5183 411.587 38.0916C412.555 38.7342 413.42 39.3053 414.311 39.8964C417.019 36.8597 420.043 37.7861 423.139 39.3252C424.328 36.8497 427.078 36.5708 428.796 37.1038C431.008 37.7861 432.723 37.1303 434.578 36.7451C439.994 35.6195 445.644 36.2803 451.005 34.4988C452.383 34.0405 454.277 35.1795 455.886 35.573C456.543 35.1164 457.253 34.4722 458.076 34.0837C460.378 32.9962 462.987 33.7832 465.463 32.5928C467.516 31.6065 470.419 31.9071 472.797 32.4334C474.106 32.7223 474.316 31.7842 474.891 31.7095C478.152 31.2861 481.126 28.8604 484.75 30.5157C485.66 30.9275 487.08 30.0791 488.263 29.8101C496.753 27.8809 505.238 25.9244 513.738 24.0454C515.654 23.6196 517.671 23.0486 519.566 23.298C521.512 23.5548 522.096 21.1384 524.017 21.6282C525.26 21.9467 526.625 21.6965 528.154 21.6985C529.39 21.1472 530.884 20.2022 532.51 19.8014C538.801 18.2572 545.077 16.5149 551.469 15.5459C559.425 14.3414 566.653 10.8463 574.309 8.70936C579.826 7.17077 584.765 3.52347 590.37 0.605013C591.561 0.777351 593.37 1.03917 595.316 1.3196C595.482 1.07836 595.813 0.59156 596.216 0C597.603 1.11372 598.985 2.22395 600.604 3.52428C597.456 5.18274 594.812 6.5734 591.716 8.2058C592.856 9.26573 593.566 9.92536 594.421 10.7218L600.529 9.3343C601.477 9.96388 602.169 10.4241 603.393 11.2327C602.274 12.6022 601.159 13.9713 599.872 15.5516C601.157 15.7619 601.898 15.8833 602.711 16.0171C604.213 19.29 602.535 21.8401 601.059 24.4137C601.532 24.7633 601.997 25.1147 602.116 25.2027C601.024 27.0017 599.971 28.7376 598.716 30.8113C597.059 30.7731 594.62 29.0696 592.718 31.4837C593.19 31.839 593.664 32.1926 594.555 32.8617C591.869 33.0128 589.531 33.1423 587.197 33.2718C587.195 33.6006 587.193 33.9359 587.192 34.2663C588.348 34.2946 589.504 34.3211 591.028 34.3543C589.733 35.4933 588.684 36.4197 587.323 37.6168C586.826 36.9693 586.395 36.4131 585.565 35.3372C584.607 35.4933 583.132 35.7324 581.332 36.0262C582.112 37.1469 582.679 37.9638 583.719 39.4564C582.273 39.7835 581.363 40.0624 580.432 40.1902C573.69 41.1167 567.83 44.9237 561.085 46.0046C554.297 47.092 547.677 49.1508 540.9 50.3263C539.458 50.5786 539.117 53.0973 537.056 51.7774C536.419 51.3689 534.623 52.9877 533.974 52.581C531.634 51.1116 531.624 54.1566 530.063 54.3857C527.352 54.7841 524.719 53.9191 521.928 54.6746C513.528 56.9392 505.003 58.7639 496.477 60.5238C493.265 61.1895 489.888 61.0368 486.638 61.5631C483.303 62.1027 480.034 63.0159 476.691 63.5139C481.204 61.0019 492.641 58.5713 497.969 58.1479C497.022 58.0715 496.076 57.9935 495.129 57.9171C495.322 57.5601 495.517 57.2015 495.708 56.8429C492.165 57.6481 488.561 58.2508 485.093 59.3051C480.118 60.8176 474.747 59.3367 469.885 61.4054C467.734 60.1568 465.433 61.9284 463.63 61.3423C460.756 60.4109 459.272 63.7098 456.315 62.6888C454.079 61.9184 451.28 63.0391 448.188 63.3778C447.908 63.23 447.083 62.7984 446.258 62.365C446.32 62.0645 446.381 61.7623 446.439 61.4618C452.299 60.7944 458.159 60.1253 464.312 59.4263C464.449 59.2304 464.911 58.5646 465.374 57.8989C464.592 57.3808 463.9 56.9226 463.208 56.4677C462.735 57.0455 462.261 57.6249 461.238 58.8801C460.576 57.5303 459.961 56.2734 459.345 55.0183L458.369 56.3813C457.895 56.7848 457.418 57.1899 456.819 57.6963C456.553 57.0986 456.311 56.5573 455.966 55.7787C453.464 55.7106 450.802 55.6409 448.109 55.5678C447.858 56.8163 447.669 57.7527 447.454 58.817C445.207 58.4965 443.01 58.1861 440.89 57.8856C440.391 58.377 439.854 58.9133 439.102 59.6571C437.549 58.3455 436.137 57.1517 434.721 55.958C434.227 56.7831 434.014 57.1401 433.703 57.6614C432.577 57.3742 431.393 57.0737 430.137 56.7533C430.594 56.0128 431.028 55.3105 431.502 54.5451C431.966 54.8074 432.46 55.088 433.216 55.5163C434.116 54.8057 435.132 53.9972 436.268 53.0973C436.815 54.0005 437.219 54.6679 437.65 55.3752C439.176 54.4089 440.688 53.4509 442.363 52.3884C445.11 53.7963 447.744 51.5101 450.894 51.5267C451.672 52.0131 452.699 52.654 453.725 53.2916C454.856 50.665 457.629 51.7193 459.711 50.3944C459.618 49.8365 459.499 49.1209 459.284 47.8491C458.6 48.7274 458.283 49.1292 457.709 49.868C456.925 49.0977 456.069 48.2592 455.162 47.3676C454.415 48.7092 453.913 49.6074 453.337 50.6401C451.934 50.2532 450.546 49.8697 449.084 49.4646C447.763 51.6396 445.839 51.0087 443.68 50.4608C441.862 49.9975 439.897 50.2267 437.868 50.147C437.313 49.5144 436.622 48.7307 435.243 47.1618C434.944 49.1209 434.811 50.0042 434.608 51.3324C432.818 51.4619 430.912 51.5997 429.006 51.7325C427.08 51.8654 424.934 52.6241 423.28 51.97C421.061 51.0883 420.564 54.4056 418.242 53.2401C416.685 52.4564 414.468 53.1521 412.562 53.1853C412.021 54.6463 411.617 55.7405 410.86 57.7943C413.014 57.087 414.32 56.6553 416.301 56.0028C416.163 55.9181 416.813 56.3149 417.643 56.818C417.434 57.2928 417.227 57.7594 416.961 58.3737C417.326 58.6709 417.75 59.0146 418.161 59.3499C418.006 59.6172 417.873 60.1452 417.658 60.1768C415.902 60.4407 414.107 60.4955 412.369 60.8425C410.504 61.2194 408.417 62.7004 406.913 62.1542C404.627 61.3257 403.016 62.7436 400.886 62.5759C400.036 62.0446 398.999 61.3921 397.653 60.5487C396.929 61.4054 396.186 62.2837 395.061 63.6152C401.733 65.2655 407.996 64.1316 415.178 64.0469C412.232 65.762 409.702 66.1339 407.324 66.3414C405.908 66.4659 404.403 65.6408 402.788 66.1438C401.507 66.5456 399.408 65.8832 398.827 66.6519C397.347 68.6077 396.302 66.3314 395.108 66.6353C393.539 67.0321 391.969 67.5252 390.369 67.6779C388.483 67.8606 386.553 67.6082 384.66 67.7443C382.939 67.8672 381.299 67.9702 379.519 67.8141C376.676 67.5667 373.737 68.8916 371.037 70.5187C373.047 70.2431 375.054 69.9675 377.955 69.5723C373.038 73.3329 367.912 70.9321 363.556 72.5061C362.395 71.4567 361.363 70.18 360.056 69.4744C359.395 69.1191 358.239 69.8014 356.064 70.2962C358.228 70.8491 359.058 71.0616 359.899 71.2758C359.682 71.5946 359.514 72.1092 359.277 72.1375C356.801 72.4645 354.552 73.7297 351.744 72.7252C349.673 71.9847 347.491 73.826 344.826 73.1917C341.745 72.4579 338.316 73.6815 335.029 73.7164C331.795 73.7463 328.58 73.982 325.32 73.8027C320.551 73.5437 315.757 74.1663 310.987 73.9372C306.228 73.7081 301.519 75.2937 296.72 73.7961C294.305 73.0407 291.936 74.3373 289.283 73.9322C283.672 73.0822 277.914 73.5188 272.218 73.303C269.178 73.1884 266.177 72.511 263.092 73.0905C259.399 73.7811 256.616 72.6273 254.374 69.8546C254.161 70.8491 253.98 71.6992 253.782 72.6189C253.249 72.3085 252.752 72.0196 252.251 71.729C251.937 72.1956 251.609 72.6804 251.619 72.6638C249.266 72.4197 247.07 71.6444 245.2 72.1292C242.642 72.79 240.696 71.309 237.206 71.3704C232.234 73.6915 225.831 69.7483 219.348 71.1911C218.941 70.1219 218.515 69.0195 217.692 66.871C217.148 68.7854 216.823 69.9293 216.735 70.2414C211.228 70.6017 206.664 69.5043 202.144 67.9818L201.752 66.2634C200.97 66.9242 200.438 67.6049 199.746 67.9037C198.827 68.2989 197.789 68.3968 196.63 68.6592C195.912 68.1079 195.093 67.4804 194.155 66.7581L188.94 67.9436C188.431 67.1168 188.024 66.451 187.515 65.6208C187.014 66.1455 186.543 66.6436 185.775 67.4521C184.368 66.6237 182.861 65.7321 181.653 65.0215C181.202 63.6866 180.888 62.7585 180.322 61.0883C179.516 63.3496 178.992 64.8123 178.44 66.3597C174.566 65.7005 170.85 64.2577 166.719 64.4138C163.077 64.5533 159.548 62.3335 155.661 62.0728C153.517 61.9284 151.385 60.0755 148.959 61.2111C147.264 59.4213 145.047 59.7252 142.957 59.3483C140.343 58.8801 137.354 60.2199 135.168 58.3222C132.964 56.4129 129.841 58.4982 128.058 55.86C125.546 56.1257 123.169 54.7808 120.836 54.731C118.148 54.6762 115.941 54.0354 113.655 52.7387C112.92 52.3219 111.762 52.737 110.413 52.7835Z" fill="#00FFBB"/>
</svg>
